<svg width="326" height="230" viewBox="0 0 326 230" fill="none" xmlns="http://www.w3.org/2000/svg">
<path fill-rule="evenodd" clip-rule="evenodd" d="M135.902 61.7434L145.747 90.9962C146.069 90.4904 146.527 89.1102 146.932 87.8881L146.932 87.8881L146.932 87.8879L146.933 87.8873C147.159 87.2057 147.368 86.5733 147.529 86.1694C149.345 81.6083 151.588 77.4462 154.345 73.5892C155.261 72.3087 156.38 70.8752 157.27 69.9061C160.373 66.5291 163.427 63.3002 167.471 60.7207C173.067 57.1517 178.105 54.6425 185.584 52.8385C192.949 51.0621 201.259 50.598 209.136 51.338C233.106 53.5899 253.869 68.9763 257.53 93.7848C258.299 98.9926 256.998 100.417 254.356 102.921C257.559 104.576 258.841 106.641 258.837 111.377C258.836 113.079 258.848 114.722 258.859 116.321V116.321C258.936 126.969 258.999 135.639 255.031 146.477C244.751 174.56 212.708 183.323 185.338 176.766C178.385 175.1 172.473 172.256 167.325 168.781L167.269 168.743C166.37 168.136 166.204 168.024 164.745 168.035C164.16 168.04 163.369 168.047 162.434 168.056H162.434H162.433C156.26 168.113 143.759 168.228 142.086 167.975L135.463 144.623L100.803 144.628C100.377 145.901 99.279 149.681 98.0697 153.845L98.0696 153.845L98.0695 153.846C96.2279 160.187 94.1281 167.418 93.7485 168.039L67 168.025L102.747 61.7125L135.902 61.7434ZM205.589 110.027L251.058 110.025C251.332 112.481 251.25 115.996 251.175 119.171V119.171V119.172V119.173C251.143 120.541 251.113 121.846 251.113 122.976C251.113 127.07 250.866 130.964 250.175 134.825C248.209 145.816 243.814 152.881 236.622 159.672C224.099 171.497 201.825 172.965 185.745 168.758C182.537 167.919 179.327 166.645 176.511 165.193C174.66 164.238 169.547 161.301 168.928 159.978C168.55 159.168 168.176 157.945 167.827 156.807C167.649 156.226 167.478 155.667 167.317 155.196L152.773 111.945C152.382 110.76 152.055 109.858 151.789 109.126C150.767 106.305 150.655 105.998 151.324 101.756C152.422 94.7807 154.707 88.0025 157.798 82.6432C163.564 72.6452 172.774 63.9617 186.887 60.545C203.365 56.5561 223.427 59.3745 235.195 69.515C238.125 72.0401 240.63 74.2579 242.975 77.7351C245.91 82.086 249.691 89.5895 249.913 96.3432H223.287C223.117 95.9171 222.961 95.5248 222.817 95.16C221.646 92.1988 221.194 91.0568 219.048 88.4678C212.804 80.9344 200.014 79.4426 191.901 83.5468C186.814 86.1196 182.971 90.6935 180.733 96.7756C174.623 113.374 177.342 142.768 197.107 147.59C206.678 149.924 217.691 147.142 222.719 138.365C223.881 136.335 225.361 131.481 224.91 128.652L205.554 128.598L205.589 110.027ZM214.393 136.391C213.662 136.409 212.928 136.438 212.198 136.466C207.087 136.661 202.165 136.85 199.51 133.588C197.832 131.527 197.68 129.796 197.682 126.575C197.683 124.575 197.683 122.576 197.682 120.576L197.682 117.576C197.682 116.634 197.659 115.715 197.637 114.825C197.513 109.892 197.411 105.841 201.382 103.426C203.443 102.173 205.261 102.197 207.677 102.229C208.077 102.234 208.493 102.24 208.93 102.24C209.81 102.24 210.719 102.252 211.637 102.264H211.638C213.75 102.291 215.916 102.319 217.913 102.206C217.735 101.943 217.557 101.714 217.378 101.484C217.017 101.02 216.656 100.556 216.297 99.8111C216.017 99.2322 215.842 98.6898 215.662 98.1358L215.662 98.1355C215.532 97.7322 215.399 97.3227 215.223 96.8884C212.69 90.6408 205.698 88.3429 199.005 89.4522C190.433 90.8725 186.947 99.5401 186.033 108.826C184.763 121.735 187.532 139.773 202.377 140.506C204.796 140.626 207.273 140.379 209.418 139.664C211.348 139.019 213.579 137.727 214.393 136.391ZM130.347 125.152L105.958 125.114L117.586 85.645L118.928 85.6462C119.443 86.7204 122.176 96.4659 123.735 102.026C124.17 103.579 124.514 104.805 124.693 105.425L130.347 125.152Z" fill="white"/>
</svg>
